<?xml version="1.0" encoding="UTF-8" standalone="no"?>
<!DOCTYPE svg PUBLIC "-//W3C//DTD SVG 20010904//EN"
              "http://www.w3.org/TR/2001/REC-SVG-20010904/DTD/svg10.dtd">

<svg xmlns="http://www.w3.org/2000/svg"
     width="57.7778in" height="32.5in"
     viewBox="0 0 4160 2340">
  <path id="選択範囲"
        fill="none" stroke="black" stroke-width="1"
        d="M 2397.00,975.00
           C 2397.00,975.00 2397.00,1135.00 2397.00,1135.00
             2397.00,1135.00 2288.00,1135.00 2288.00,1135.00
             2288.00,1135.00 2288.00,975.00 2288.00,975.00
             2288.00,975.00 2397.00,975.00 2397.00,975.00 Z
           M 2975.00,976.00
           C 2975.00,976.00 2975.00,1136.00 2975.00,1136.00
             2975.00,1136.00 2867.00,1136.00 2867.00,1136.00
             2867.00,1136.00 2867.00,976.00 2867.00,976.00
             2867.00,976.00 2975.00,976.00 2975.00,976.00 Z
           M 1833.00,994.00
           C 1833.00,994.00 1833.00,1135.00 1833.00,1135.00
             1833.00,1135.00 1737.00,1135.00 1737.00,1135.00
             1737.00,1135.00 1737.00,994.00 1737.00,994.00
             1737.00,994.00 1833.00,994.00 1833.00,994.00 Z
           M 3368.00,1191.00
           C 3368.00,1191.00 3368.00,1362.00 3368.00,1362.00
             3368.00,1362.00 3252.00,1362.00 3252.00,1362.00
             3252.00,1362.00 3252.00,1191.00 3252.00,1191.00
             3252.00,1191.00 3368.00,1191.00 3368.00,1191.00 Z
           M 2968.00,1207.00
           C 2968.00,1207.00 2968.00,1361.00 2968.00,1361.00
             2968.00,1361.00 2863.00,1361.00 2863.00,1361.00
             2863.00,1361.00 2863.00,1207.00 2863.00,1207.00
             2863.00,1207.00 2968.00,1207.00 2968.00,1207.00 Z
           M 1633.00,1212.00
           C 1633.00,1212.00 1633.00,1382.00 1633.00,1382.00
             1633.00,1382.00 1518.00,1382.00 1518.00,1382.00
             1518.00,1382.00 1518.00,1212.00 1518.00,1212.00
             1518.00,1212.00 1633.00,1212.00 1633.00,1212.00 Z
           M 1047.00,1213.00
           C 1047.00,1213.00 1047.00,1363.00 1047.00,1363.00
             1047.00,1363.00 945.00,1363.00 945.00,1363.00
             945.00,1363.00 945.00,1213.00 945.00,1213.00
             945.00,1213.00 1047.00,1213.00 1047.00,1213.00 Z
           M 3170.00,1213.00
           C 3170.00,1213.00 3170.00,1364.00 3170.00,1364.00
             3170.00,1364.00 3068.00,1364.00 3068.00,1364.00
             3068.00,1364.00 3068.00,1213.00 3068.00,1213.00
             3068.00,1213.00 3170.00,1213.00 3170.00,1213.00 Z
           M 852.00,1262.00
           C 852.00,1262.00 852.00,1419.00 852.00,1419.00
             852.00,1419.00 745.00,1419.00 745.00,1419.00
             745.00,1419.00 745.00,1262.00 745.00,1262.00
             745.00,1262.00 852.00,1262.00 852.00,1262.00 Z
           M 2783.00,1436.00
           C 2783.00,1436.00 2783.00,1606.00 2783.00,1606.00
             2783.00,1606.00 2668.00,1606.00 2668.00,1606.00
             2668.00,1606.00 2668.00,1436.00 2668.00,1436.00
             2668.00,1436.00 2783.00,1436.00 2783.00,1436.00 Z
           M 2983.00,1439.00
           C 2983.00,1439.00 2983.00,1607.00 2983.00,1607.00
             2983.00,1607.00 2869.00,1607.00 2869.00,1607.00
             2869.00,1607.00 2869.00,1439.00 2869.00,1439.00
             2869.00,1439.00 2983.00,1439.00 2983.00,1439.00 Z
           M 1238.00,1452.00
           C 1238.00,1452.00 1238.00,1617.00 1238.00,1617.00
             1238.00,1617.00 1126.00,1617.00 1126.00,1617.00
             1126.00,1617.00 1126.00,1452.00 1126.00,1452.00
             1126.00,1452.00 1238.00,1452.00 1238.00,1452.00 Z
           M 1047.00,1458.00
           C 1047.00,1458.00 1047.00,1619.00 1047.00,1619.00
             1047.00,1619.00 938.00,1619.00 938.00,1619.00
             938.00,1619.00 938.00,1458.00 938.00,1458.00
             938.00,1458.00 1047.00,1458.00 1047.00,1458.00 Z
           M 2993.00,1673.00
           C 2993.00,1673.00 2993.00,1850.00 2993.00,1850.00
             2993.00,1850.00 2873.00,1850.00 2873.00,1850.00
             2873.00,1850.00 2873.00,1673.00 2873.00,1673.00
             2873.00,1673.00 2993.00,1673.00 2993.00,1673.00 Z
           M 2205.00,1674.00
           C 2205.00,1674.00 2205.00,1851.00 2205.00,1851.00
             2205.00,1851.00 2085.00,1851.00 2085.00,1851.00
             2085.00,1851.00 2085.00,1674.00 2085.00,1674.00
             2085.00,1674.00 2205.00,1674.00 2205.00,1674.00 Z
           M 2803.00,1676.00
           C 2803.00,1676.00 2803.00,1853.00 2803.00,1853.00
             2803.00,1853.00 2683.00,1853.00 2683.00,1853.00
             2683.00,1853.00 2683.00,1676.00 2683.00,1676.00
             2683.00,1676.00 2803.00,1676.00 2803.00,1676.00 Z
           M 3392.00,1684.00
           C 3392.00,1684.00 3392.00,1852.00 3392.00,1852.00
             3392.00,1852.00 3278.00,1852.00 3278.00,1852.00
             3278.00,1852.00 3278.00,1684.00 3278.00,1684.00
             3278.00,1684.00 3392.00,1684.00 3392.00,1684.00 Z
           M 1822.00,1688.00
           C 1822.00,1688.00 1822.00,1856.00 1822.00,1856.00
             1822.00,1856.00 1708.00,1856.00 1708.00,1856.00
             1708.00,1856.00 1708.00,1688.00 1708.00,1688.00
             1708.00,1688.00 1822.00,1688.00 1822.00,1688.00 Z
           M 3808.00,1918.00
           C 3808.00,1918.00 3808.00,2101.00 3808.00,2101.00
             3808.00,2101.00 3684.00,2101.00 3684.00,2101.00
             3684.00,2101.00 3684.00,1918.00 3684.00,1918.00
             3684.00,1918.00 3808.00,1918.00 3808.00,1918.00 Z
           M 2210.00,1922.00
           C 2210.00,1922.00 2210.00,2094.00 2210.00,2094.00
             2210.00,2094.00 2093.00,2094.00 2093.00,2094.00
             2093.00,2094.00 2093.00,1922.00 2093.00,1922.00
             2093.00,1922.00 2210.00,1922.00 2210.00,1922.00 Z" />
</svg>
