<?xml version="1.0" encoding="UTF-8" standalone="no"?>
<!DOCTYPE svg PUBLIC "-//W3C//DTD SVG 20010904//EN"
              "http://www.w3.org/TR/2001/REC-SVG-20010904/DTD/svg10.dtd">

<svg xmlns="http://www.w3.org/2000/svg"
     width="57.7778in" height="32.5in"
     viewBox="0 0 4160 2340">
  <path id="選択範囲"
        fill="none" stroke="black" stroke-width="1"
        d="M 1531.00,534.00
           C 1531.00,534.00 1531.00,665.00 1531.00,665.00
             1531.00,665.00 1442.00,665.00 1442.00,665.00
             1442.00,665.00 1442.00,534.00 1442.00,534.00
             1442.00,534.00 1531.00,534.00 1531.00,534.00 Z
           M 2307.00,537.00
           C 2307.00,537.00 2307.00,672.00 2307.00,672.00
             2307.00,672.00 2216.00,672.00 2216.00,672.00
             2216.00,672.00 2216.00,537.00 2216.00,537.00
             2216.00,537.00 2307.00,537.00 2307.00,537.00 Z
           M 2605.00,721.00
           C 2605.00,721.00 2605.00,854.00 2605.00,854.00
             2605.00,854.00 2515.00,854.00 2515.00,854.00
             2515.00,854.00 2515.00,721.00 2515.00,721.00
             2515.00,721.00 2605.00,721.00 2605.00,721.00 Z
           M 2309.00,725.00
           C 2309.00,725.00 2309.00,858.00 2309.00,858.00
             2309.00,858.00 2219.00,858.00 2219.00,858.00
             2219.00,858.00 2219.00,725.00 2219.00,725.00
             2219.00,725.00 2309.00,725.00 2309.00,725.00 Z
           M 1187.00,904.00
           C 1187.00,904.00 1187.00,1043.00 1187.00,1043.00
             1187.00,1043.00 1092.00,1043.00 1092.00,1043.00
             1092.00,1043.00 1092.00,904.00 1092.00,904.00
             1092.00,904.00 1187.00,904.00 1187.00,904.00 Z
           M 1019.00,1090.00
           C 1019.00,1090.00 1019.00,1229.00 1019.00,1229.00
             1019.00,1229.00 925.00,1229.00 925.00,1229.00
             925.00,1229.00 925.00,1090.00 925.00,1090.00
             925.00,1090.00 1019.00,1090.00 1019.00,1090.00 Z
           M 2947.00,1093.00
           C 2947.00,1093.00 2947.00,1231.00 2947.00,1231.00
             2947.00,1231.00 2854.00,1231.00 2854.00,1231.00
             2854.00,1231.00 2854.00,1093.00 2854.00,1093.00
             2854.00,1093.00 2947.00,1093.00 2947.00,1093.00 Z
           M 2626.00,1100.00
           C 2626.00,1100.00 2626.00,1228.00 2626.00,1228.00
             2626.00,1228.00 2539.00,1228.00 2539.00,1228.00
             2539.00,1228.00 2539.00,1100.00 2539.00,1100.00
             2539.00,1100.00 2626.00,1100.00 2626.00,1100.00 Z
           M 2638.00,1283.00
           C 2638.00,1283.00 2638.00,1418.00 2638.00,1418.00
             2638.00,1418.00 2546.00,1418.00 2546.00,1418.00
             2546.00,1418.00 2546.00,1283.00 2546.00,1283.00
             2546.00,1283.00 2638.00,1283.00 2638.00,1283.00 Z
           M 1833.00,1286.00
           C 1833.00,1286.00 1833.00,1424.00 1833.00,1424.00
             1833.00,1424.00 1739.00,1424.00 1739.00,1424.00
             1739.00,1424.00 1739.00,1286.00 1739.00,1286.00
             1739.00,1286.00 1833.00,1286.00 1833.00,1286.00 Z
           M 2787.00,1291.00
           C 2787.00,1291.00 2787.00,1418.00 2787.00,1418.00
             2787.00,1418.00 2700.00,1418.00 2700.00,1418.00
             2700.00,1418.00 2700.00,1291.00 2700.00,1291.00
             2700.00,1291.00 2787.00,1291.00 2787.00,1291.00 Z
           M 3454.00,1469.00
           C 3454.00,1469.00 3454.00,1619.00 3454.00,1619.00
             3454.00,1619.00 3353.00,1619.00 3353.00,1619.00
             3353.00,1619.00 3353.00,1469.00 3353.00,1469.00
             3353.00,1469.00 3454.00,1469.00 3454.00,1469.00 Z
           M 2162.00,1470.00
           C 2162.00,1470.00 2162.00,1611.00 2162.00,1611.00
             2162.00,1611.00 2066.00,1611.00 2066.00,1611.00
             2066.00,1611.00 2066.00,1470.00 2066.00,1470.00
             2066.00,1470.00 2162.00,1470.00 2162.00,1470.00 Z
           M 2652.00,1477.00
           C 2652.00,1477.00 2652.00,1621.00 2652.00,1621.00
             2652.00,1621.00 2554.00,1621.00 2554.00,1621.00
             2554.00,1621.00 2554.00,1477.00 2554.00,1477.00
             2554.00,1477.00 2652.00,1477.00 2652.00,1477.00 Z
           M 1517.00,1492.00
           C 1517.00,1492.00 1517.00,1632.00 1517.00,1632.00
             1517.00,1632.00 1422.00,1632.00 1422.00,1632.00
             1422.00,1632.00 1422.00,1492.00 1422.00,1492.00
             1422.00,1492.00 1517.00,1492.00 1517.00,1492.00 Z
           M 3138.00,1669.00
           C 3138.00,1669.00 3138.00,1823.00 3138.00,1823.00
             3138.00,1823.00 3033.00,1823.00 3033.00,1823.00
             3033.00,1823.00 3033.00,1669.00 3033.00,1669.00
             3033.00,1669.00 3138.00,1669.00 3138.00,1669.00 Z
           M 2816.00,1681.00
           C 2816.00,1681.00 2816.00,1822.00 2816.00,1822.00
             2816.00,1822.00 2720.00,1822.00 2720.00,1822.00
             2720.00,1822.00 2720.00,1681.00 2720.00,1681.00
             2720.00,1681.00 2816.00,1681.00 2816.00,1681.00 Z
           M 1160.00,1704.00
           C 1160.00,1704.00 1160.00,1856.00 1160.00,1856.00
             1160.00,1856.00 1058.00,1856.00 1058.00,1856.00
             1058.00,1856.00 1058.00,1704.00 1058.00,1704.00
             1058.00,1704.00 1160.00,1704.00 1160.00,1704.00 Z
           M 974.00,1731.00
           C 974.00,1731.00 974.00,1881.00 974.00,1881.00
             974.00,1881.00 872.00,1881.00 872.00,1881.00
             872.00,1881.00 872.00,1731.00 872.00,1731.00
             872.00,1731.00 974.00,1731.00 974.00,1731.00 Z" />
</svg>
