<?xml version="1.0" encoding="UTF-8" standalone="no"?>
<!DOCTYPE svg PUBLIC "-//W3C//DTD SVG 20010904//EN"
              "http://www.w3.org/TR/2001/REC-SVG-20010904/DTD/svg10.dtd">

<svg xmlns="http://www.w3.org/2000/svg"
     width="57.7778in" height="32.5in"
     viewBox="0 0 4160 2340">
  <path id="選択範囲"
        fill="none" stroke="black" stroke-width="1"
        d="M 1776.00,410.00
           C 1776.00,410.00 1776.00,557.00 1776.00,557.00
             1776.00,557.00 1676.00,557.00 1676.00,557.00
             1676.00,557.00 1676.00,410.00 1676.00,410.00
             1676.00,410.00 1776.00,410.00 1776.00,410.00 Z
           M 2622.00,413.00
           C 2622.00,413.00 2622.00,566.00 2622.00,566.00
             2622.00,566.00 2518.00,566.00 2518.00,566.00
             2518.00,566.00 2518.00,413.00 2518.00,413.00
             2518.00,413.00 2622.00,413.00 2622.00,413.00 Z
           M 2802.00,611.00
           C 2802.00,611.00 2802.00,756.00 2802.00,756.00
             2802.00,756.00 2703.00,756.00 2703.00,756.00
             2703.00,756.00 2703.00,611.00 2703.00,611.00
             2703.00,611.00 2802.00,611.00 2802.00,611.00 Z
           M 3152.00,804.00
           C 3152.00,804.00 3152.00,951.00 3152.00,951.00
             3152.00,951.00 3052.00,951.00 3052.00,951.00
             3052.00,951.00 3052.00,804.00 3052.00,804.00
             3052.00,804.00 3152.00,804.00 3152.00,804.00 Z
           M 3164.00,1009.00
           C 3164.00,1009.00 3164.00,1163.00 3164.00,1163.00
             3164.00,1163.00 3059.00,1163.00 3059.00,1163.00
             3059.00,1163.00 3059.00,1009.00 3059.00,1009.00
             3059.00,1009.00 3164.00,1009.00 3164.00,1009.00 Z
           M 2129.00,1024.00
           C 2129.00,1024.00 2129.00,1173.00 2129.00,1173.00
             2129.00,1173.00 2028.00,1173.00 2028.00,1173.00
             2028.00,1173.00 2028.00,1024.00 2028.00,1024.00
             2028.00,1024.00 2129.00,1024.00 2129.00,1024.00 Z
           M 1951.00,1032.00
           C 1951.00,1032.00 1951.00,1173.00 1951.00,1173.00
             1951.00,1173.00 1856.00,1173.00 1856.00,1173.00
             1856.00,1173.00 1856.00,1032.00 1856.00,1032.00
             1856.00,1032.00 1951.00,1032.00 1951.00,1032.00 Z
           M 2639.00,1221.00
           C 2639.00,1221.00 2639.00,1378.00 2639.00,1378.00
             2639.00,1378.00 2532.00,1378.00 2532.00,1378.00
             2532.00,1378.00 2532.00,1221.00 2532.00,1221.00
             2532.00,1221.00 2639.00,1221.00 2639.00,1221.00 Z
           M 2831.00,1227.00
           C 2831.00,1227.00 2831.00,1384.00 2831.00,1384.00
             2831.00,1384.00 2724.00,1384.00 2724.00,1384.00
             2724.00,1384.00 2724.00,1227.00 2724.00,1227.00
             2724.00,1227.00 2831.00,1227.00 2831.00,1227.00 Z
           M 3171.00,1229.00
           C 3171.00,1229.00 3171.00,1376.00 3171.00,1376.00
             3171.00,1376.00 3070.00,1376.00 3070.00,1376.00
             3070.00,1376.00 3070.00,1229.00 3070.00,1229.00
             3070.00,1229.00 3171.00,1229.00 3171.00,1229.00 Z
           M 1953.00,1232.00
           C 1953.00,1232.00 1953.00,1388.00 1953.00,1388.00
             1953.00,1388.00 1847.00,1388.00 1847.00,1388.00
             1847.00,1388.00 1847.00,1232.00 1847.00,1232.00
             1847.00,1232.00 1953.00,1232.00 1953.00,1232.00 Z
           M 2313.00,1260.00
           C 2313.00,1260.00 2313.00,1403.00 2313.00,1403.00
             2313.00,1403.00 2215.00,1403.00 2215.00,1403.00
             2215.00,1403.00 2215.00,1260.00 2215.00,1260.00
             2215.00,1260.00 2313.00,1260.00 2313.00,1260.00 Z
           M 3356.00,1436.00
           C 3356.00,1436.00 3356.00,1592.00 3356.00,1592.00
             3356.00,1592.00 3250.00,1592.00 3250.00,1592.00
             3250.00,1592.00 3250.00,1436.00 3250.00,1436.00
             3250.00,1436.00 3356.00,1436.00 3356.00,1436.00 Z
           M 3014.00,1444.00
           C 3014.00,1444.00 3014.00,1596.00 3014.00,1596.00
             3014.00,1596.00 2912.00,1596.00 2912.00,1596.00
             2912.00,1596.00 2912.00,1444.00 2912.00,1444.00
             2912.00,1444.00 3014.00,1444.00 3014.00,1444.00 Z
           M 1783.00,1449.00
           C 1783.00,1449.00 1783.00,1610.00 1783.00,1610.00
             1783.00,1610.00 1674.00,1610.00 1674.00,1610.00
             1674.00,1610.00 1674.00,1449.00 1674.00,1449.00
             1674.00,1449.00 1783.00,1449.00 1783.00,1449.00 Z
           M 2656.00,1458.00
           C 2656.00,1458.00 2656.00,1597.00 2656.00,1597.00
             2656.00,1597.00 2562.00,1597.00 2562.00,1597.00
             2562.00,1597.00 2562.00,1458.00 2562.00,1458.00
             2562.00,1458.00 2656.00,1458.00 2656.00,1458.00 Z
           M 1239.00,1464.00
           C 1239.00,1464.00 1239.00,1618.00 1239.00,1618.00
             1239.00,1618.00 1134.00,1618.00 1134.00,1618.00
             1134.00,1618.00 1134.00,1464.00 1134.00,1464.00
             1134.00,1464.00 1239.00,1464.00 1239.00,1464.00 Z
           M 3548.00,1644.00
           C 3548.00,1644.00 3548.00,1812.00 3548.00,1812.00
             3548.00,1812.00 3434.00,1812.00 3434.00,1812.00
             3434.00,1812.00 3434.00,1644.00 3434.00,1644.00
             3434.00,1644.00 3548.00,1644.00 3548.00,1644.00 Z
           M 2669.00,1655.00
           C 2669.00,1655.00 2669.00,1814.00 2669.00,1814.00
             2669.00,1814.00 2561.00,1814.00 2561.00,1814.00
             2561.00,1814.00 2561.00,1655.00 2561.00,1655.00
             2561.00,1655.00 2669.00,1655.00 2669.00,1655.00 Z
           M 2138.00,1664.00
           C 2138.00,1664.00 2138.00,1821.00 2138.00,1821.00
             2138.00,1821.00 2031.00,1821.00 2031.00,1821.00
             2031.00,1821.00 2031.00,1664.00 2031.00,1664.00
             2031.00,1664.00 2138.00,1664.00 2138.00,1664.00 Z
           M 2317.00,1664.00
           C 2317.00,1664.00 2317.00,1822.00 2317.00,1822.00
             2317.00,1822.00 2210.00,1822.00 2210.00,1822.00
             2210.00,1822.00 2210.00,1664.00 2210.00,1664.00
             2210.00,1664.00 2317.00,1664.00 2317.00,1664.00 Z
           M 1959.00,1667.00
           C 1959.00,1667.00 1959.00,1823.00 1959.00,1823.00
             1959.00,1823.00 1853.00,1823.00 1853.00,1823.00
             1853.00,1823.00 1853.00,1667.00 1853.00,1667.00
             1853.00,1667.00 1959.00,1667.00 1959.00,1667.00 Z
           M 1421.00,1671.00
           C 1421.00,1671.00 1421.00,1836.00 1421.00,1836.00
             1421.00,1836.00 1309.00,1836.00 1309.00,1836.00
             1309.00,1836.00 1309.00,1671.00 1309.00,1671.00
             1309.00,1671.00 1421.00,1671.00 1421.00,1671.00 Z
           M 1777.00,1674.00
           C 1777.00,1674.00 1777.00,1826.00 1777.00,1826.00
             1777.00,1826.00 1673.00,1826.00 1673.00,1826.00
             1673.00,1826.00 1673.00,1674.00 1673.00,1674.00
             1673.00,1674.00 1777.00,1674.00 1777.00,1674.00 Z
           M 1602.00,1676.00
           C 1602.00,1676.00 1602.00,1832.00 1602.00,1832.00
             1602.00,1832.00 1496.00,1832.00 1496.00,1832.00
             1496.00,1832.00 1496.00,1676.00 1496.00,1676.00
             1496.00,1676.00 1602.00,1676.00 1602.00,1676.00 Z
           M 874.00,1677.00
           C 874.00,1677.00 874.00,1844.00 874.00,1844.00
             874.00,1844.00 761.00,1844.00 761.00,1844.00
             761.00,1844.00 761.00,1677.00 761.00,1677.00
             761.00,1677.00 874.00,1677.00 874.00,1677.00 Z
           M 1054.00,1679.00
           C 1054.00,1679.00 1054.00,1839.00 1054.00,1839.00
             1054.00,1839.00 945.00,1839.00 945.00,1839.00
             945.00,1839.00 945.00,1679.00 945.00,1679.00
             945.00,1679.00 1054.00,1679.00 1054.00,1679.00 Z" />
</svg>
