<?xml version="1.0" encoding="UTF-8" standalone="no"?>
<!DOCTYPE svg PUBLIC "-//W3C//DTD SVG 20010904//EN"
              "http://www.w3.org/TR/2001/REC-SVG-20010904/DTD/svg10.dtd">

<svg xmlns="http://www.w3.org/2000/svg"
     width="57.7778in" height="32.5in"
     viewBox="0 0 4160 2340">
  <path id="選択範囲"
        fill="none" stroke="black" stroke-width="1"
        d="M 2645.00,437.00
           C 2645.00,437.00 2645.00,592.00 2645.00,592.00
             2645.00,592.00 2539.00,592.00 2539.00,592.00
             2539.00,592.00 2539.00,437.00 2539.00,437.00
             2539.00,437.00 2645.00,437.00 2645.00,437.00 Z
           M 3194.00,633.00
           C 3194.00,633.00 3194.00,795.00 3194.00,795.00
             3194.00,795.00 3083.00,795.00 3083.00,795.00
             3083.00,795.00 3083.00,633.00 3083.00,633.00
             3083.00,633.00 3194.00,633.00 3194.00,633.00 Z
           M 2475.00,653.00
           C 2475.00,653.00 2475.00,819.00 2475.00,819.00
             2475.00,819.00 2361.00,819.00 2361.00,819.00
             2361.00,819.00 2361.00,653.00 2361.00,653.00
             2361.00,653.00 2475.00,653.00 2475.00,653.00 Z
           M 2300.00,860.00
           C 2300.00,860.00 2300.00,1025.00 2300.00,1025.00
             2300.00,1025.00 2188.00,1025.00 2188.00,1025.00
             2188.00,1025.00 2188.00,860.00 2188.00,860.00
             2188.00,860.00 2300.00,860.00 2300.00,860.00 Z
           M 1055.00,866.00
           C 1055.00,866.00 1055.00,1035.00 1055.00,1035.00
             1055.00,1035.00 939.00,1035.00 939.00,1035.00
             939.00,1035.00 939.00,866.00 939.00,866.00
             939.00,866.00 1055.00,866.00 1055.00,866.00 Z
           M 3222.00,1066.00
           C 3222.00,1066.00 3222.00,1235.00 3222.00,1235.00
             3222.00,1235.00 3107.00,1235.00 3107.00,1235.00
             3107.00,1235.00 3107.00,1066.00 3107.00,1066.00
             3107.00,1066.00 3222.00,1066.00 3222.00,1066.00 Z
           M 3054.00,1296.00
           C 3054.00,1296.00 3054.00,1478.00 3054.00,1478.00
             3054.00,1478.00 2930.00,1478.00 2930.00,1478.00
             2930.00,1478.00 2930.00,1296.00 2930.00,1296.00
             2930.00,1296.00 3054.00,1296.00 3054.00,1296.00 Z
           M 2864.00,1299.00
           C 2864.00,1299.00 2864.00,1475.00 2864.00,1475.00
             2864.00,1475.00 2744.00,1475.00 2744.00,1475.00
             2744.00,1475.00 2744.00,1299.00 2744.00,1299.00
             2744.00,1299.00 2864.00,1299.00 2864.00,1299.00 Z
           M 1590.00,1305.00
           C 1590.00,1305.00 1590.00,1483.00 1590.00,1483.00
             1590.00,1483.00 1469.00,1483.00 1469.00,1483.00
             1469.00,1483.00 1469.00,1305.00 1469.00,1305.00
             1469.00,1305.00 1590.00,1305.00 1590.00,1305.00 Z
           M 3622.00,1516.00
           C 3622.00,1516.00 3622.00,1703.00 3622.00,1703.00
             3622.00,1703.00 3494.00,1703.00 3494.00,1703.00
             3494.00,1703.00 3494.00,1516.00 3494.00,1516.00
             3494.00,1516.00 3622.00,1516.00 3622.00,1516.00 Z
           M 2312.00,1520.00
           C 2312.00,1520.00 2312.00,1688.00 2312.00,1688.00
             2312.00,1688.00 2198.00,1688.00 2198.00,1688.00
             2198.00,1688.00 2198.00,1520.00 2198.00,1520.00
             2198.00,1520.00 2312.00,1520.00 2312.00,1520.00 Z
           M 2868.00,1520.00
           C 2868.00,1520.00 2868.00,1695.00 2868.00,1695.00
             2868.00,1695.00 2748.00,1695.00 2748.00,1695.00
             2748.00,1695.00 2748.00,1520.00 2748.00,1520.00
             2748.00,1520.00 2868.00,1520.00 2868.00,1520.00 Z
           M 2680.00,1521.00
           C 2680.00,1521.00 2680.00,1690.00 2680.00,1690.00
             2680.00,1690.00 2565.00,1690.00 2565.00,1690.00
             2565.00,1690.00 2565.00,1521.00 2565.00,1521.00
             2565.00,1521.00 2680.00,1521.00 2680.00,1521.00 Z" />
</svg>
