<?xml version="1.0" encoding="UTF-8" standalone="no"?>
<!DOCTYPE svg PUBLIC "-//W3C//DTD SVG 20010904//EN"
              "http://www.w3.org/TR/2001/REC-SVG-20010904/DTD/svg10.dtd">

<svg xmlns="http://www.w3.org/2000/svg"
     width="57.7778in" height="32.5in"
     viewBox="0 0 4160 2340">
  <path id="選択範囲"
        fill="none" stroke="black" stroke-width="1"
        d="M 1551.00,451.00
           C 1551.00,451.00 1551.00,607.00 1551.00,607.00
             1551.00,607.00 1445.00,607.00 1445.00,607.00
             1445.00,607.00 1445.00,451.00 1445.00,451.00
             1445.00,451.00 1551.00,451.00 1551.00,451.00 Z
           M 2379.00,477.00
           C 2379.00,477.00 2379.00,617.00 2379.00,617.00
             2379.00,617.00 2283.00,617.00 2283.00,617.00
             2283.00,617.00 2283.00,477.00 2283.00,477.00
             2283.00,477.00 2379.00,477.00 2379.00,477.00 Z
           M 1375.00,661.00
           C 1375.00,661.00 1375.00,808.00 1375.00,808.00
             1375.00,808.00 1274.00,808.00 1274.00,808.00
             1274.00,808.00 1274.00,661.00 1274.00,661.00
             1274.00,661.00 1375.00,661.00 1375.00,661.00 Z
           M 3053.00,666.00
           C 3053.00,666.00 3053.00,813.00 3053.00,813.00
             3053.00,813.00 2952.00,813.00 2952.00,813.00
             2952.00,813.00 2952.00,666.00 2952.00,666.00
             2952.00,666.00 3053.00,666.00 3053.00,666.00 Z
           M 2900.00,1065.00
           C 2900.00,1065.00 2900.00,1216.00 2900.00,1216.00
             2900.00,1216.00 2796.00,1216.00 2796.00,1216.00
             2796.00,1216.00 2796.00,1065.00 2796.00,1065.00
             2796.00,1065.00 2900.00,1065.00 2900.00,1065.00 Z
           M 2393.00,1274.00
           C 2393.00,1274.00 2393.00,1429.00 2393.00,1429.00
             2393.00,1429.00 2287.00,1429.00 2287.00,1429.00
             2287.00,1429.00 2287.00,1274.00 2287.00,1274.00
             2287.00,1274.00 2393.00,1274.00 2393.00,1274.00 Z
           M 3610.00,1498.00
           C 3610.00,1498.00 3610.00,1654.00 3610.00,1654.00
             3610.00,1654.00 3504.00,1654.00 3504.00,1654.00
             3504.00,1654.00 3504.00,1498.00 3504.00,1498.00
             3504.00,1498.00 3610.00,1498.00 3610.00,1498.00 Z
           M 3440.00,1505.00
           C 3440.00,1505.00 3440.00,1649.00 3440.00,1649.00
             3440.00,1649.00 3342.00,1649.00 3342.00,1649.00
             3342.00,1649.00 3342.00,1505.00 3342.00,1505.00
             3342.00,1505.00 3440.00,1505.00 3440.00,1505.00 Z
           M 982.00,1709.00
           C 982.00,1709.00 982.00,1861.00 982.00,1861.00
             982.00,1861.00 879.00,1861.00 879.00,1861.00
             879.00,1861.00 879.00,1709.00 879.00,1709.00
             879.00,1709.00 982.00,1709.00 982.00,1709.00 Z
           M 1877.00,1712.00
           C 1877.00,1712.00 1877.00,1858.00 1877.00,1858.00
             1877.00,1858.00 1778.00,1858.00 1778.00,1858.00
             1778.00,1858.00 1778.00,1712.00 1778.00,1712.00
             1778.00,1712.00 1877.00,1712.00 1877.00,1712.00 Z
           M 2580.00,1723.00
           C 2580.00,1723.00 2580.00,1866.00 2580.00,1866.00
             2580.00,1866.00 2482.00,1866.00 2482.00,1866.00
             2482.00,1866.00 2482.00,1723.00 2482.00,1723.00
             2482.00,1723.00 2580.00,1723.00 2580.00,1723.00 Z" />
</svg>
