<?xml version="1.0" encoding="UTF-8" standalone="no"?>
<!DOCTYPE svg PUBLIC "-//W3C//DTD SVG 20010904//EN"
              "http://www.w3.org/TR/2001/REC-SVG-20010904/DTD/svg10.dtd">

<svg xmlns="http://www.w3.org/2000/svg"
     width="57.7778in" height="32.5in"
     viewBox="0 0 4160 2340">
  <path id="選択範囲"
        fill="none" stroke="black" stroke-width="1"
        d="M 1711.00,346.00
           C 1711.00,346.00 1711.00,517.00 1711.00,517.00
             1711.00,517.00 1587.00,517.00 1587.00,517.00
             1587.00,517.00 1587.00,346.00 1587.00,346.00
             1587.00,346.00 1711.00,346.00 1711.00,346.00 Z
           M 2637.00,363.00
           C 2637.00,363.00 2637.00,515.00 2637.00,515.00
             2637.00,515.00 2527.00,515.00 2527.00,515.00
             2527.00,515.00 2527.00,363.00 2527.00,363.00
             2527.00,363.00 2637.00,363.00 2637.00,363.00 Z
           M 1896.00,365.00
           C 1896.00,365.00 1896.00,521.00 1896.00,521.00
             1896.00,521.00 1783.00,521.00 1783.00,521.00
             1783.00,521.00 1783.00,365.00 1783.00,365.00
             1783.00,365.00 1896.00,365.00 1896.00,365.00 Z
           M 2462.00,375.00
           C 2462.00,375.00 2462.00,524.00 2462.00,524.00
             2462.00,524.00 2354.00,524.00 2354.00,524.00
             2354.00,524.00 2354.00,375.00 2354.00,375.00
             2354.00,375.00 2462.00,375.00 2462.00,375.00 Z
           M 3214.00,573.00
           C 3214.00,573.00 3214.00,734.00 3214.00,734.00
             3214.00,734.00 3098.00,734.00 3098.00,734.00
             3098.00,734.00 3098.00,573.00 3098.00,573.00
             3098.00,573.00 3214.00,573.00 3214.00,573.00 Z
           M 2275.00,594.00
           C 2275.00,594.00 2275.00,737.00 2275.00,737.00
             2275.00,737.00 2171.00,737.00 2171.00,737.00
             2171.00,737.00 2171.00,594.00 2171.00,594.00
             2171.00,594.00 2275.00,594.00 2275.00,594.00 Z
           M 1316.00,802.00
           C 1316.00,802.00 1316.00,970.00 1316.00,970.00
             1316.00,970.00 1194.00,970.00 1194.00,970.00
             1194.00,970.00 1194.00,802.00 1194.00,802.00
             1194.00,802.00 1316.00,802.00 1316.00,802.00 Z
           M 3043.00,808.00
           C 3043.00,808.00 3043.00,967.00 3043.00,967.00
             3043.00,967.00 2928.00,967.00 2928.00,967.00
             2928.00,967.00 2928.00,808.00 2928.00,808.00
             2928.00,808.00 3043.00,808.00 3043.00,808.00 Z
           M 2276.00,810.00
           C 2276.00,810.00 2276.00,968.00 2276.00,968.00
             2276.00,968.00 2162.00,968.00 2162.00,968.00
             2162.00,968.00 2162.00,810.00 2162.00,810.00
             2162.00,810.00 2276.00,810.00 2276.00,810.00 Z
           M 3451.00,1026.00
           C 3451.00,1026.00 3451.00,1195.00 3451.00,1195.00
             3451.00,1195.00 3328.00,1195.00 3328.00,1195.00
             3328.00,1195.00 3328.00,1026.00 3328.00,1026.00
             3328.00,1026.00 3451.00,1026.00 3451.00,1026.00 Z
           M 919.00,1037.00
           C 919.00,1037.00 919.00,1208.00 919.00,1208.00
             919.00,1208.00 795.00,1208.00 795.00,1208.00
             795.00,1208.00 795.00,1037.00 795.00,1037.00
             795.00,1037.00 919.00,1037.00 919.00,1037.00 Z
           M 2866.00,1044.00
           C 2866.00,1044.00 2866.00,1199.00 2866.00,1199.00
             2866.00,1199.00 2754.00,1199.00 2754.00,1199.00
             2754.00,1199.00 2754.00,1044.00 2754.00,1044.00
             2754.00,1044.00 2866.00,1044.00 2866.00,1044.00 Z
           M 2288.00,1259.00
           C 2288.00,1259.00 2288.00,1429.00 2288.00,1429.00
             2288.00,1429.00 2165.00,1429.00 2165.00,1429.00
             2165.00,1429.00 2165.00,1259.00 2165.00,1259.00
             2165.00,1259.00 2288.00,1259.00 2288.00,1259.00 Z
           M 1085.00,1270.00
           C 1085.00,1270.00 1085.00,1435.00 1085.00,1435.00
             1085.00,1435.00 965.00,1435.00 965.00,1435.00
             965.00,1435.00 965.00,1270.00 965.00,1270.00
             965.00,1270.00 1085.00,1270.00 1085.00,1270.00 Z
           M 1685.00,1274.00
           C 1685.00,1274.00 1685.00,1426.00 1685.00,1426.00
             1685.00,1426.00 1575.00,1426.00 1575.00,1426.00
             1575.00,1426.00 1575.00,1274.00 1575.00,1274.00
             1575.00,1274.00 1685.00,1274.00 1685.00,1274.00 Z
           M 2881.00,1275.00
           C 2881.00,1275.00 2881.00,1441.00 2881.00,1441.00
             2881.00,1441.00 2761.00,1441.00 2761.00,1441.00
             2761.00,1441.00 2761.00,1275.00 2761.00,1275.00
             2761.00,1275.00 2881.00,1275.00 2881.00,1275.00 Z
           M 3494.00,1494.00
           C 3494.00,1494.00 3494.00,1678.00 3494.00,1678.00
             3494.00,1678.00 3368.00,1678.00 3368.00,1678.00
             3368.00,1678.00 3368.00,1494.00 3368.00,1494.00
             3368.00,1494.00 3494.00,1494.00 3494.00,1494.00 Z
           M 1881.00,1517.00
           C 1881.00,1517.00 1881.00,1679.00 1881.00,1679.00
             1881.00,1679.00 1764.00,1679.00 1764.00,1679.00
             1764.00,1679.00 1764.00,1517.00 1764.00,1517.00
             1764.00,1517.00 1881.00,1517.00 1881.00,1517.00 Z
           M 1263.00,1755.00
           C 1263.00,1755.00 1263.00,1940.00 1263.00,1940.00
             1263.00,1940.00 1130.00,1940.00 1130.00,1940.00
             1130.00,1940.00 1130.00,1755.00 1130.00,1755.00
             1130.00,1755.00 1263.00,1755.00 1263.00,1755.00 Z
           M 3507.00,1756.00
           C 3507.00,1756.00 3507.00,1930.00 3507.00,1930.00
             3507.00,1930.00 3388.00,1930.00 3388.00,1930.00
             3388.00,1930.00 3388.00,1756.00 3388.00,1756.00
             3388.00,1756.00 3507.00,1756.00 3507.00,1756.00 Z
           M 1475.00,1758.00
           C 1475.00,1758.00 1475.00,1939.00 1475.00,1939.00
             1475.00,1939.00 1343.00,1939.00 1343.00,1939.00
             1343.00,1939.00 1343.00,1758.00 1343.00,1758.00
             1343.00,1758.00 1475.00,1758.00 1475.00,1758.00 Z
           M 1871.00,1758.00
           C 1871.00,1758.00 1871.00,1934.00 1871.00,1934.00
             1871.00,1934.00 1744.00,1934.00 1744.00,1934.00
             1744.00,1934.00 1744.00,1758.00 1744.00,1758.00
             1744.00,1758.00 1871.00,1758.00 1871.00,1758.00 Z
           M 2896.00,1758.00
           C 2896.00,1758.00 2896.00,1938.00 2896.00,1938.00
             2896.00,1938.00 2765.00,1938.00 2765.00,1938.00
             2765.00,1938.00 2765.00,1758.00 2765.00,1758.00
             2765.00,1758.00 2896.00,1758.00 2896.00,1758.00 Z
           M 3915.00,1768.00
           C 3915.00,1768.00 3915.00,1937.00 3915.00,1937.00
             3915.00,1937.00 3800.00,1937.00 3800.00,1937.00
             3800.00,1937.00 3800.00,1768.00 3800.00,1768.00
             3800.00,1768.00 3915.00,1768.00 3915.00,1768.00 Z" />
</svg>
