<?xml version="1.0" encoding="UTF-8" standalone="no"?>
<!DOCTYPE svg PUBLIC "-//W3C//DTD SVG 20010904//EN"
              "http://www.w3.org/TR/2001/REC-SVG-20010904/DTD/svg10.dtd">

<svg xmlns="http://www.w3.org/2000/svg"
     width="57.7778in" height="32.5in"
     viewBox="0 0 4160 2340">
  <path id="選択範囲"
        fill="none" stroke="black" stroke-width="1"
        d="M 1276.00,894.00
           C 1276.00,894.00 1276.00,1062.00 1276.00,1062.00
             1276.00,1062.00 1161.00,1062.00 1161.00,1062.00
             1161.00,1062.00 1161.00,894.00 1161.00,894.00
             1161.00,894.00 1276.00,894.00 1276.00,894.00 Z
           M 3327.00,1284.00
           C 3327.00,1284.00 3327.00,1442.00 3327.00,1442.00
             3327.00,1442.00 3219.00,1442.00 3219.00,1442.00
             3219.00,1442.00 3219.00,1284.00 3219.00,1284.00
             3219.00,1284.00 3327.00,1284.00 3327.00,1284.00 Z
           M 2129.00,1302.00
           C 2129.00,1302.00 2129.00,1467.00 2129.00,1467.00
             2129.00,1467.00 2016.00,1467.00 2016.00,1467.00
             2016.00,1467.00 2016.00,1302.00 2016.00,1302.00
             2016.00,1302.00 2129.00,1302.00 2129.00,1302.00 Z
           M 3344.00,1494.00
           C 3344.00,1494.00 3344.00,1659.00 3344.00,1659.00
             3344.00,1659.00 3231.00,1659.00 3231.00,1659.00
             3231.00,1659.00 3231.00,1494.00 3231.00,1494.00
             3231.00,1494.00 3344.00,1494.00 3344.00,1494.00 Z
           M 1446.00,1518.00
           C 1446.00,1518.00 1446.00,1680.00 1446.00,1680.00
             1446.00,1680.00 1335.00,1680.00 1335.00,1680.00
             1335.00,1680.00 1335.00,1518.00 1335.00,1518.00
             1335.00,1518.00 1446.00,1518.00 1446.00,1518.00 Z
           M 1083.00,1527.00
           C 1083.00,1527.00 1083.00,1689.00 1083.00,1689.00
             1083.00,1689.00 972.00,1689.00 972.00,1689.00
             972.00,1689.00 972.00,1527.00 972.00,1527.00
             972.00,1527.00 1083.00,1527.00 1083.00,1527.00 Z
           M 2664.00,1710.00
           C 2664.00,1710.00 2664.00,1881.00 2664.00,1881.00
             2664.00,1881.00 2547.00,1881.00 2547.00,1881.00
             2547.00,1881.00 2547.00,1710.00 2547.00,1710.00
             2547.00,1710.00 2664.00,1710.00 2664.00,1710.00 Z" />
</svg>
