<?xml version="1.0" encoding="UTF-8" standalone="no"?>
<!DOCTYPE svg PUBLIC "-//W3C//DTD SVG 20010904//EN"
              "http://www.w3.org/TR/2001/REC-SVG-20010904/DTD/svg10.dtd">

<svg xmlns="http://www.w3.org/2000/svg"
     width="57.7778in" height="32.5in"
     viewBox="0 0 4160 2340">
  <path id="選択範囲"
        fill="none" stroke="black" stroke-width="1"
        d="M 1364.00,688.00
           C 1364.00,688.00 1364.00,859.00 1364.00,859.00
             1364.00,859.00 1248.00,859.00 1248.00,859.00
             1248.00,859.00 1248.00,688.00 1248.00,688.00
             1248.00,688.00 1364.00,688.00 1364.00,688.00 Z
           M 1754.00,904.00
           C 1754.00,904.00 1754.00,1083.00 1754.00,1083.00
             1754.00,1083.00 1632.00,1083.00 1632.00,1083.00
             1632.00,1083.00 1632.00,904.00 1632.00,904.00
             1632.00,904.00 1754.00,904.00 1754.00,904.00 Z
           M 1150.00,920.00
           C 1150.00,920.00 1150.00,1079.00 1150.00,1079.00
             1150.00,1079.00 1042.00,1079.00 1042.00,1079.00
             1042.00,1079.00 1042.00,920.00 1042.00,920.00
             1042.00,920.00 1150.00,920.00 1150.00,920.00 Z
           M 1148.00,1152.00
           C 1148.00,1152.00 1148.00,1320.00 1148.00,1320.00
             1148.00,1320.00 1034.00,1320.00 1034.00,1320.00
             1034.00,1320.00 1034.00,1152.00 1034.00,1152.00
             1034.00,1152.00 1148.00,1152.00 1148.00,1152.00 Z
           M 2569.00,1380.00
           C 2569.00,1380.00 2569.00,1558.00 2569.00,1558.00
             2569.00,1558.00 2448.00,1558.00 2448.00,1558.00
             2448.00,1558.00 2448.00,1380.00 2448.00,1380.00
             2448.00,1380.00 2569.00,1380.00 2569.00,1380.00 Z
           M 3603.00,1640.00
           C 3603.00,1640.00 3603.00,1818.00 3603.00,1818.00
             3603.00,1818.00 3482.00,1818.00 3482.00,1818.00
             3482.00,1818.00 3482.00,1640.00 3482.00,1640.00
             3482.00,1640.00 3603.00,1640.00 3603.00,1640.00 Z
           M 3411.00,1646.00
           C 3411.00,1646.00 3411.00,1824.00 3411.00,1824.00
             3411.00,1824.00 3290.00,1824.00 3290.00,1824.00
             3290.00,1824.00 3290.00,1646.00 3290.00,1646.00
             3290.00,1646.00 3411.00,1646.00 3411.00,1646.00 Z
           M 325.00,1650.00
           C 325.00,1650.00 325.00,1822.00 325.00,1822.00
             325.00,1822.00 208.00,1822.00 208.00,1822.00
             208.00,1822.00 208.00,1650.00 208.00,1650.00
             208.00,1650.00 325.00,1650.00 325.00,1650.00 Z
           M 503.00,1650.00
           C 503.00,1650.00 503.00,1834.00 503.00,1834.00
             503.00,1834.00 378.00,1834.00 378.00,1834.00
             378.00,1834.00 378.00,1650.00 378.00,1650.00
             378.00,1650.00 503.00,1650.00 503.00,1650.00 Z
           M 2791.00,1894.00
           C 2791.00,1894.00 2791.00,2090.00 2791.00,2090.00
             2791.00,2090.00 2658.00,2090.00 2658.00,2090.00
             2658.00,2090.00 2658.00,1894.00 2658.00,1894.00
             2658.00,1894.00 2791.00,1894.00 2791.00,1894.00 Z
           M 300.00,1904.00
           C 300.00,1904.00 300.00,2080.00 300.00,2080.00
             300.00,2080.00 180.00,2080.00 180.00,2080.00
             180.00,2080.00 180.00,1904.00 180.00,1904.00
             180.00,1904.00 300.00,1904.00 300.00,1904.00 Z
           M 3215.00,1910.00
           C 3215.00,1910.00 3215.00,2088.00 3215.00,2088.00
             3215.00,2088.00 3094.00,2088.00 3094.00,2088.00
             3094.00,2088.00 3094.00,1910.00 3094.00,1910.00
             3094.00,1910.00 3215.00,1910.00 3215.00,1910.00 Z
           M 894.00,1944.00
           C 894.00,1944.00 894.00,2120.00 894.00,2120.00
             894.00,2120.00 774.00,2120.00 774.00,2120.00
             774.00,2120.00 774.00,1944.00 774.00,1944.00
             774.00,1944.00 894.00,1944.00 894.00,1944.00 Z" />
</svg>
