<?xml version="1.0" encoding="UTF-8" standalone="no"?>
<!DOCTYPE svg PUBLIC "-//W3C//DTD SVG 20010904//EN"
              "http://www.w3.org/TR/2001/REC-SVG-20010904/DTD/svg10.dtd">

<svg xmlns="http://www.w3.org/2000/svg"
     width="57.7778in" height="32.5in"
     viewBox="0 0 4160 2340">
  <path id="選択範囲"
        fill="none" stroke="black" stroke-width="1"
        d="M 2911.00,319.00
           C 2911.00,319.00 2911.00,505.00 2911.00,505.00
             2911.00,505.00 2783.00,505.00 2783.00,505.00
             2783.00,505.00 2783.00,319.00 2783.00,319.00
             2783.00,319.00 2911.00,319.00 2911.00,319.00 Z
           M 1266.00,756.00
           C 1266.00,756.00 1266.00,948.00 1266.00,948.00
             1266.00,948.00 1135.00,948.00 1135.00,948.00
             1135.00,948.00 1135.00,756.00 1135.00,756.00
             1135.00,756.00 1266.00,756.00 1266.00,756.00 Z
           M 842.00,764.00
           C 842.00,764.00 842.00,940.00 842.00,940.00
             842.00,940.00 723.00,940.00 723.00,940.00
             723.00,940.00 723.00,764.00 723.00,764.00
             723.00,764.00 842.00,764.00 842.00,764.00 Z
           M 786.00,1242.00
           C 786.00,1242.00 786.00,1440.00 786.00,1440.00
             786.00,1440.00 651.00,1440.00 651.00,1440.00
             651.00,1440.00 651.00,1242.00 651.00,1242.00
             651.00,1242.00 786.00,1242.00 786.00,1242.00 Z
           M 2295.00,1272.00
           C 2295.00,1272.00 2295.00,1474.00 2295.00,1474.00
             2295.00,1474.00 2157.00,1474.00 2157.00,1474.00
             2157.00,1474.00 2157.00,1272.00 2157.00,1272.00
             2157.00,1272.00 2295.00,1272.00 2295.00,1272.00 Z
           M 1419.00,1518.00
           C 1419.00,1518.00 1419.00,1727.00 1419.00,1727.00
             1419.00,1727.00 1277.00,1727.00 1277.00,1727.00
             1277.00,1727.00 1277.00,1518.00 1277.00,1518.00
             1277.00,1518.00 1419.00,1518.00 1419.00,1518.00 Z
           M 982.00,1522.00
           C 982.00,1522.00 982.00,1717.00 982.00,1717.00
             982.00,1717.00 849.00,1717.00 849.00,1717.00
             849.00,1717.00 849.00,1522.00 849.00,1522.00
             849.00,1522.00 982.00,1522.00 982.00,1522.00 Z
           M 3834.00,1588.00
           C 3834.00,1588.00 3834.00,1779.00 3834.00,1779.00
             3834.00,1779.00 3703.00,1779.00 3703.00,1779.00
             3703.00,1779.00 3703.00,1588.00 3703.00,1588.00
             3703.00,1588.00 3834.00,1588.00 3834.00,1588.00 Z
           M 1385.00,1794.00
           C 1385.00,1794.00 1385.00,2007.00 1385.00,2007.00
             1385.00,2007.00 1240.00,2007.00 1240.00,2007.00
             1240.00,2007.00 1240.00,1794.00 1240.00,1794.00
             1240.00,1794.00 1385.00,1794.00 1385.00,1794.00 Z" />
</svg>
