<?xml version="1.0" encoding="UTF-8" standalone="no"?>
<!DOCTYPE svg PUBLIC "-//W3C//DTD SVG 20010904//EN"
              "http://www.w3.org/TR/2001/REC-SVG-20010904/DTD/svg10.dtd">

<svg xmlns="http://www.w3.org/2000/svg"
     width="57.7778in" height="32.5in"
     viewBox="0 0 4160 2340">
  <path id="選択範囲"
        fill="none" stroke="black" stroke-width="1"
        d="M 2309.00,252.00
           C 2309.00,252.00 2309.00,377.00 2309.00,377.00
             2309.00,377.00 2220.00,377.00 2220.00,377.00
             2220.00,377.00 2220.00,252.00 2220.00,252.00
             2220.00,252.00 2309.00,252.00 2309.00,252.00 Z
           M 2457.00,255.00
           C 2457.00,255.00 2457.00,380.00 2457.00,380.00
             2457.00,380.00 2366.00,380.00 2366.00,380.00
             2366.00,380.00 2366.00,255.00 2366.00,255.00
             2366.00,255.00 2457.00,255.00 2457.00,255.00 Z
           M 2597.00,422.00
           C 2597.00,422.00 2597.00,551.00 2597.00,551.00
             2597.00,551.00 2515.00,551.00 2515.00,551.00
             2515.00,551.00 2515.00,422.00 2515.00,422.00
             2515.00,422.00 2597.00,422.00 2597.00,422.00 Z
           M 2755.00,593.00
           C 2755.00,593.00 2755.00,728.00 2755.00,728.00
             2755.00,728.00 2672.00,728.00 2672.00,728.00
             2672.00,728.00 2672.00,593.00 2672.00,593.00
             2672.00,593.00 2755.00,593.00 2755.00,593.00 Z
           M 2020.00,595.00
           C 2020.00,595.00 2020.00,736.00 2020.00,736.00
             2020.00,736.00 1928.00,736.00 1928.00,736.00
             1928.00,736.00 1928.00,595.00 1928.00,595.00
             1928.00,595.00 2020.00,595.00 2020.00,595.00 Z
           M 2316.00,605.00
           C 2316.00,605.00 2316.00,734.00 2316.00,734.00
             2316.00,734.00 2228.00,734.00 2228.00,734.00
             2228.00,734.00 2228.00,605.00 2228.00,605.00
             2228.00,605.00 2316.00,605.00 2316.00,605.00 Z
           M 3083.00,945.00
           C 3083.00,945.00 3083.00,1091.00 3083.00,1091.00
             3083.00,1091.00 2984.00,1091.00 2984.00,1091.00
             2984.00,1091.00 2984.00,945.00 2984.00,945.00
             2984.00,945.00 3083.00,945.00 3083.00,945.00 Z
           M 2330.00,951.00
           C 2330.00,951.00 2330.00,1092.00 2330.00,1092.00
             2330.00,1092.00 2230.00,1092.00 2230.00,1092.00
             2230.00,1092.00 2230.00,951.00 2230.00,951.00
             2230.00,951.00 2330.00,951.00 2330.00,951.00 Z
           M 2954.00,1321.00
           C 2954.00,1321.00 2954.00,1452.00 2954.00,1452.00
             2954.00,1452.00 2851.00,1452.00 2851.00,1452.00
             2851.00,1452.00 2851.00,1321.00 2851.00,1321.00
             2851.00,1321.00 2954.00,1321.00 2954.00,1321.00 Z
           M 1245.00,1338.00
           C 1245.00,1338.00 1245.00,1481.00 1245.00,1481.00
             1245.00,1481.00 1145.00,1481.00 1145.00,1481.00
             1145.00,1481.00 1145.00,1338.00 1145.00,1338.00
             1145.00,1338.00 1245.00,1338.00 1245.00,1338.00 Z" />
</svg>
