<?xml version="1.0" encoding="UTF-8" standalone="no"?>
<!DOCTYPE svg PUBLIC "-//W3C//DTD SVG 20010904//EN"
              "http://www.w3.org/TR/2001/REC-SVG-20010904/DTD/svg10.dtd">

<svg xmlns="http://www.w3.org/2000/svg"
     width="57.7778in" height="32.5in"
     viewBox="0 0 4160 2340">
  <path id="選択範囲"
        fill="none" stroke="black" stroke-width="1"
        d="M 2696.00,720.00
           C 2696.00,720.00 2696.00,876.00 2696.00,876.00
             2696.00,876.00 2590.00,876.00 2590.00,876.00
             2590.00,876.00 2590.00,720.00 2590.00,720.00
             2590.00,720.00 2696.00,720.00 2696.00,720.00 Z
           M 1996.00,736.00
           C 1996.00,736.00 1996.00,892.00 1996.00,892.00
             1996.00,892.00 1890.00,892.00 1890.00,892.00
             1890.00,892.00 1890.00,736.00 1890.00,736.00
             1890.00,736.00 1996.00,736.00 1996.00,736.00 Z
           M 2881.00,741.00
           C 2881.00,741.00 2881.00,893.00 2881.00,893.00
             2881.00,893.00 2779.00,893.00 2779.00,893.00
             2779.00,893.00 2779.00,741.00 2779.00,741.00
             2779.00,741.00 2881.00,741.00 2881.00,741.00 Z
           M 3249.00,944.00
           C 3249.00,944.00 3249.00,1108.00 3249.00,1108.00
             3249.00,1108.00 3138.00,1108.00 3138.00,1108.00
             3138.00,1108.00 3138.00,944.00 3138.00,944.00
             3138.00,944.00 3249.00,944.00 3249.00,944.00 Z
           M 1258.00,952.00
           C 1258.00,952.00 1258.00,1105.00 1258.00,1105.00
             1258.00,1105.00 1154.00,1105.00 1154.00,1105.00
             1154.00,1105.00 1154.00,952.00 1154.00,952.00
             1154.00,952.00 1258.00,952.00 1258.00,952.00 Z
           M 2527.00,1167.00
           C 2527.00,1167.00 2527.00,1307.00 2527.00,1307.00
             2527.00,1307.00 2432.00,1307.00 2432.00,1307.00
             2432.00,1307.00 2432.00,1167.00 2432.00,1167.00
             2432.00,1167.00 2527.00,1167.00 2527.00,1167.00 Z
           M 3462.00,1378.00
           C 3462.00,1378.00 3462.00,1534.00 3462.00,1534.00
             3462.00,1534.00 3356.00,1534.00 3356.00,1534.00
             3356.00,1534.00 3356.00,1378.00 3356.00,1378.00
             3356.00,1378.00 3462.00,1378.00 3462.00,1378.00 Z
           M 2721.00,1387.00
           C 2721.00,1387.00 2721.00,1537.00 2721.00,1537.00
             2721.00,1537.00 2619.00,1537.00 2619.00,1537.00
             2619.00,1537.00 2619.00,1387.00 2619.00,1387.00
             2619.00,1387.00 2721.00,1387.00 2721.00,1387.00 Z
           M 1064.00,1388.00
           C 1064.00,1388.00 1064.00,1553.00 1064.00,1553.00
             1064.00,1553.00 952.00,1553.00 952.00,1553.00
             952.00,1553.00 952.00,1388.00 952.00,1388.00
             952.00,1388.00 1064.00,1388.00 1064.00,1388.00 Z
           M 3087.00,1388.00
           C 3087.00,1388.00 3087.00,1548.00 3087.00,1548.00
             3087.00,1548.00 2978.00,1548.00 2978.00,1548.00
             2978.00,1548.00 2978.00,1388.00 2978.00,1388.00
             2978.00,1388.00 3087.00,1388.00 3087.00,1388.00 Z
           M 690.00,1394.00
           C 690.00,1394.00 690.00,1553.00 690.00,1553.00
             690.00,1553.00 582.00,1553.00 582.00,1553.00
             582.00,1553.00 582.00,1394.00 582.00,1394.00
             582.00,1394.00 690.00,1394.00 690.00,1394.00 Z
           M 3462.00,1617.00
           C 3462.00,1617.00 3462.00,1777.00 3462.00,1777.00
             3462.00,1777.00 3353.00,1777.00 3353.00,1777.00
             3353.00,1777.00 3353.00,1617.00 3353.00,1617.00
             3353.00,1617.00 3462.00,1617.00 3462.00,1617.00 Z
           M 1438.00,1618.00
           C 1438.00,1618.00 1438.00,1784.00 1438.00,1784.00
             1438.00,1784.00 1325.00,1784.00 1325.00,1784.00
             1325.00,1784.00 1325.00,1618.00 1325.00,1618.00
             1325.00,1618.00 1438.00,1618.00 1438.00,1618.00 Z
           M 3089.00,1620.00
           C 3089.00,1620.00 3089.00,1774.00 3089.00,1774.00
             3089.00,1774.00 2984.00,1774.00 2984.00,1774.00
             2984.00,1774.00 2984.00,1620.00 2984.00,1620.00
             2984.00,1620.00 3089.00,1620.00 3089.00,1620.00 Z
           M 1616.00,1626.00
           C 1616.00,1626.00 1616.00,1776.00 1616.00,1776.00
             1616.00,1776.00 1515.00,1776.00 1515.00,1776.00
             1515.00,1776.00 1515.00,1626.00 1515.00,1626.00
             1515.00,1626.00 1616.00,1626.00 1616.00,1626.00 Z
           M 1999.00,1848.00
           C 1999.00,1848.00 1999.00,2018.00 1999.00,2018.00
             1999.00,2018.00 1884.00,2018.00 1884.00,2018.00
             1884.00,2018.00 1884.00,1848.00 1884.00,1848.00
             1884.00,1848.00 1999.00,1848.00 1999.00,1848.00 Z" />
</svg>
